<svg xmlns="http://www.w3.org/2000/svg" viewBox="0 0 64 64">
  <!-- Back plank -->
  <rect x="8" y="12" width="48" height="12" rx="1" fill="#A67C52"/>
  <line x1="12" y1="14" x2="12" y2="22" stroke="#8B6914" stroke-width="1"/>
  <line x1="24" y1="14" x2="24" y2="22" stroke="#8B6914" stroke-width="1"/>
  <line x1="40" y1="14" x2="40" y2="22" stroke="#8B6914" stroke-width="1"/>
  <rect x="8" y="12" width="48" height="12" rx="1" fill="none" stroke="#6D4C41" stroke-width="2"/>

  <!-- Middle plank -->
  <rect x="8" y="26" width="48" height="12" rx="1" fill="#BC8F5F"/>
  <line x1="16" y1="28" x2="16" y2="36" stroke="#9E7E4E" stroke-width="1"/>
  <line x1="32" y1="28" x2="32" y2="36" stroke="#9E7E4E" stroke-width="1"/>
  <line x1="48" y1="28" x2="48" y2="36" stroke="#9E7E4E" stroke-width="1"/>
  <rect x="8" y="26" width="48" height="12" rx="1" fill="none" stroke="#6D4C41" stroke-width="2"/>

  <!-- Front plank -->
  <rect x="8" y="40" width="48" height="12" rx="1" fill="#D4A76A"/>
  <line x1="20" y1="42" x2="20" y2="50" stroke="#BC9458" stroke-width="1"/>
  <line x1="36" y1="42" x2="36" y2="50" stroke="#BC9458" stroke-width="1"/>
  <line x1="52" y1="42" x2="52" y2="50" stroke="#BC9458" stroke-width="1"/>
  <rect x="8" y="40" width="48" height="12" rx="1" fill="none" stroke="#6D4C41" stroke-width="2"/>
</svg>
