<svg xmlns="http://www.w3.org/2000/svg" viewBox="0 0 64 64">
  <!-- Main rock shape -->
  <polygon points="32,8 52,20 56,40 44,56 20,56 8,40 12,20" fill="#7D7D7D"/>
  <!-- Darker facets -->
  <polygon points="32,8 12,20 8,40 20,56" fill="#6B6B6B"/>
  <!-- Lighter facets -->
  <polygon points="32,8 52,20 44,32" fill="#9E9E9E"/>
  <!-- Highlight -->
  <polygon points="32,8 40,16 32,20 24,16" fill="#BDBDBD"/>
  <!-- Cracks -->
  <path d="M24,28 L32,36 L28,48" fill="none" stroke="#5D5D5D" stroke-width="2"/>
  <path d="M40,32 L44,44" fill="none" stroke="#5D5D5D" stroke-width="1.5"/>
  <!-- Outline -->
  <polygon points="32,8 52,20 56,40 44,56 20,56 8,40 12,20" fill="none" stroke="#4A4A4A" stroke-width="2"/>
</svg>
